<svg xmlns="http://www.w3.org/2000/svg" width="1920" height="1080" viewBox="0 0 1920 1080"><defs><linearGradient id="bg" x1="0" y1="1" x2="1" y2="0"><stop stop-color="#06101a"/><stop offset=".36" stop-color="#0b2638"/><stop offset=".72" stop-color="#143f54"/><stop offset="1" stop-color="#06101a"/></linearGradient><radialGradient id="glow" cx="80.72916666666666%" cy="39.81481481481482%" r="62%"><stop stop-color="#4bb8ea" stop-opacity=".62"/><stop offset=".34" stop-color="#1a71a2" stop-opacity=".20"/><stop offset="1" stop-color="#06101a" stop-opacity="0"/></radialGradient><filter id="blur"><feGaussianBlur stdDeviation="28"/></filter></defs><rect width="1920" height="1080" fill="url(#bg)"/><rect width="1920" height="1080" fill="url(#glow)"/><g fill="none" stroke="#a9dced" stroke-opacity=".11" stroke-width="3"><path d="M0 810 L340 500 650 730 940 390 1240 680 1510 430 1910 760"/><circle cx="1480" cy="430" r="100"/><path d="M1380 430h200M1480 330v200"/><rect x="1330" y="730" width="300" height="180" rx="8"/></g><g fill="none" stroke="#a0d7f3" stroke-opacity=".05" stroke-width="32" filter="url(#blur)"><path d="M-100 910 C420 550 720 930 1120 650 S1700 400 2040 700"/><path d="M-50 270 C390 70 800 360 1130 220 S1580 90 1960 290"/></g><rect width="1920" height="1080" fill="#000" opacity=".16"/></svg>