<svg xmlns="http://www.w3.org/2000/svg" width="1920" height="1080" viewBox="0 0 1920 1080"><defs><linearGradient id="bg" x1="0" y1="1" x2="1" y2="0"><stop stop-color="#080b12"/><stop offset=".36" stop-color="#10112a"/><stop offset=".72" stop-color="#052441"/><stop offset="1" stop-color="#080b12"/></linearGradient><radialGradient id="glow" cx="74.47916666666666%" cy="33.33333333333333%" r="62%"><stop stop-color="#2a97da" stop-opacity=".62"/><stop offset=".34" stop-color="#6e2b8f" stop-opacity=".20"/><stop offset="1" stop-color="#080b12" stop-opacity="0"/></radialGradient><filter id="blur"><feGaussianBlur stdDeviation="28"/></filter></defs><rect width="1920" height="1080" fill="url(#bg)"/><rect width="1920" height="1080" fill="url(#glow)"/><g fill="none" stroke="#9fc2dc" stroke-opacity=".14" stroke-width="3"><path d="M-60 690 C300 520 520 650 760 420 S1120 120 1310 230 1650 410 1980 260"/><path d="M-50 760 C310 590 540 740 790 500 S1160 260 1330 320 1660 500 1970 365"/><path d="M20 130 C310 240 460 50 690 125 S1000 355 1210 430 1550 380 1880 510"/></g><g fill="none" stroke="#9bd7ff" stroke-opacity=".10"><circle cx="1480" cy="175" r="110"/><circle cx="1480" cy="175" r="155"/><circle cx="1480" cy="175" r="205"/></g><g fill="none" stroke="#b3c7ff" stroke-opacity=".13" stroke-width="4"><path d="M1470 610l85-85 85 85-85 85z"/><path d="M1430 690h220v140h-220z"/></g><g fill="none" stroke="#9cc5e6" stroke-opacity=".05" stroke-width="32" filter="url(#blur)"><path d="M-100 910 C420 550 720 930 1120 650 S1700 400 2040 700"/><path d="M-50 270 C390 70 800 360 1130 220 S1580 90 1960 290"/></g><rect width="1920" height="1080" fill="#000" opacity=".16"/></svg>