<svg xmlns="http://www.w3.org/2000/svg" width="1920" height="1080" viewBox="0 0 1920 1080">
  <defs>
    <linearGradient id="bg" x1="0" y1="0" x2="1" y2="1">
      <stop stop-color="#111025"/>
      <stop offset=".38" stop-color="#07111b"/>
      <stop offset=".72" stop-color="#071727"/>
      <stop offset="1" stop-color="#05080d"/>
    </linearGradient>
    <radialGradient id="blue" cx="78%" cy="29%" r="55%">
      <stop stop-color="#0e8dcc" stop-opacity=".72"/>
      <stop offset=".48" stop-color="#155b9a" stop-opacity=".22"/>
      <stop offset="1" stop-color="#07111a" stop-opacity="0"/>
    </radialGradient>
    <radialGradient id="violet" cx="18%" cy="64%" r="50%">
      <stop stop-color="#30134d" stop-opacity=".48"/>
      <stop offset="1" stop-color="#0d0b16" stop-opacity="0"/>
    </radialGradient>
    <filter id="blur"><feGaussianBlur stdDeviation="18"/></filter>
  </defs>
  <rect width="1920" height="1080" fill="url(#bg)"/>
  <rect width="1920" height="1080" fill="url(#blue)"/>
  <rect width="1920" height="1080" fill="url(#violet)"/>
  <g fill="none" stroke="#6aa8c7" stroke-opacity=".13" stroke-width="3">
    <path d="M-30 690 C310 530 490 570 690 420 S1080 130 1270 220 1580 360 1940 250"/>
    <path d="M-40 745 C300 600 510 650 720 485 S1080 210 1275 285 1590 420 1950 315"/>
    <path d="M-60 802 C280 675 520 730 755 540 S1090 290 1290 355 1610 500 1960 390"/>
  </g>
  <g fill="none" stroke="#45789b" stroke-opacity=".10" stroke-width="3">
    <path d="M40 138 C340 230 470 60 670 120 S1010 360 1190 420 1590 360 1870 490"/>
    <path d="M-10 178 C310 270 455 110 660 160 S1000 397 1210 455 1610 410 1930 530"/>
  </g>
  <g transform="translate(1420 110)" fill="none" stroke="#92b5d2" stroke-opacity=".13">
    <circle cx="0" cy="0" r="85" stroke-width="5"/>
    <circle cx="0" cy="0" r="118" stroke-width="2"/>
    <circle cx="0" cy="0" r="145" stroke-width="1"/>
    <path d="M-170 0H170M0-170V170" stroke-width="2"/>
  </g>
  <g fill="none" stroke="#9ab8c9" stroke-opacity=".16" stroke-width="4">
    <circle cx="1520" cy="565" r="108"/>
    <path d="M1450 522 L1520 452 1590 522 1520 592Z"/>
    <rect x="1444" y="644" width="112" height="112" rx="8"/>
    <path d="M1490 840h60m-30-30v60"/>
  </g>
  <g stroke="#5ea5d6" stroke-opacity=".11" fill="none" filter="url(#blur)">
    <path d="M1120 260 C1310 380 1390 420 1550 260" stroke-width="38"/>
    <path d="M1210 830 C1450 620 1610 720 1900 560" stroke-width="24"/>
  </g>
  <g fill="#d8f0ff" fill-opacity=".38">
    <circle cx="1280" cy="295" r="4"/><circle cx="1390" cy="430" r="2"/><circle cx="1650" cy="310" r="3"/><circle cx="1760" cy="505" r="2"/><circle cx="1090" cy="570" r="2"/><circle cx="1530" cy="200" r="2"/>
  </g>
  <rect width="1920" height="1080" fill="#000" opacity=".12"/>
</svg>
